<svg xmlns="http://www.w3.org/2000/svg" width="18.254" height="11.736" viewBox="0 0 18.254 11.736">
  <g id="Group_52" data-name="Group 52" transform="translate(34.196 -5.089)">
    <path id="Subtraction_18" data-name="Subtraction 18" d="M18.254,2.756H0V1A1,1,0,0,1,1,0H17.253a1,1,0,0,1,1,1V2.755ZM1.074.689,2.147,2.067,3.221.689H1.074Z" transform="translate(-34.196 5.089)" fill="#57b684"/>
    <path id="Rectangle_99" data-name="Rectangle 99" d="M0,0H18.253a0,0,0,0,1,0,0V1.884a1,1,0,0,1-1,1H1a1,1,0,0,1-1-1V0A0,0,0,0,1,0,0Z" transform="translate(-34.196 13.941)" fill="#57b684"/>
    <rect id="Rectangle_100" data-name="Rectangle 100" width="18.253" height="6.096" transform="translate(-34.196 7.845)" fill="#57b684" opacity="0.2"/>
  </g>
</svg>
