<svg xmlns="http://www.w3.org/2000/svg" width="23.432" height="13.902" viewBox="0 0 23.432 13.902">
  <g id="Group_15" data-name="Group 15" transform="translate(-2.094 -8.901)">
    <path id="Subtraction_10" data-name="Subtraction 10" d="M34.141,11.256H15a1,1,0,0,1-1-1V1a1,1,0,0,1,1-1H34.141a1,1,0,0,1,1,1v9.257A1,1,0,0,1,34.141,11.256ZM29.165,2.02l-.575.617,1.545,1.441L28.694,5.624l.617.577,1.443-1.546L32.3,6.1l.577-.617L31.33,4.037l1.442-1.546-.619-.577L30.711,3.461Z" transform="translate(-11.906 8.901)" fill="#ccd05f"/>
    <path id="Path_19" data-name="Path 19" d="M21.874,26.547h3.49v-3.8" transform="translate(-0.338 -4.243)" fill="none" stroke="#ccd05f" stroke-width="1"/>
  </g>
</svg>
