<svg xmlns="http://www.w3.org/2000/svg" width="21.465" height="18.27" viewBox="0 0 21.465 18.27">
  <g id="Group_23" data-name="Group 23" transform="translate(-0.537 -2)">
    <g id="Group_54" data-name="Group 54" transform="translate(0.537 2)">
      <rect id="Rectangle_34" data-name="Rectangle 34" width="21.465" height="1.311" rx="0.656" fill="rgba(204,208,95,0.2)"/>
      <path id="Rectangle_35" data-name="Rectangle 35" d="M.656,0H15.591a0,0,0,0,1,0,0V1.311a0,0,0,0,1,0,0H.656A.656.656,0,0,1,0,.656v0A.656.656,0,0,1,.656,0Z" fill="#ccd05f"/>
    </g>
    <g id="Group_55" data-name="Group 55" transform="translate(6.711 27.877) rotate(-124)">
      <path id="Subtraction_20" data-name="Subtraction 20" d="M-65.327-949.93a5.822,5.822,0,0,1-4.145-1.716,5.866,5.866,0,0,1-1.149-1.622l.952-.487A4.819,4.819,0,0,0-65.327-951a4.8,4.8,0,0,0,4.8-4.794,4.807,4.807,0,0,0-4.163-4.754l.184-1.051a5.793,5.793,0,0,1,3.328,1.66,5.823,5.823,0,0,1,1.717,4.145,5.822,5.822,0,0,1-1.717,4.144A5.818,5.818,0,0,1-65.327-949.93Z" transform="translate(75.188 968.426)" fill="rgba(204,208,95,0.2)"/>
      <path id="Subtraction_8" data-name="Subtraction 8" d="M3.685,11.722a5.819,5.819,0,0,1-2.377-.5l.43-.978a4.748,4.748,0,0,0,1.947.413,4.8,4.8,0,0,0,0-9.59V0A5.861,5.861,0,0,1,7.829,10,5.823,5.823,0,0,1,3.685,11.722Z" transform="translate(6.176 6.775)" fill="#ccd05f"/>
    </g>
  </g>
</svg>
